C:\GBW_MyPrograms\KinderuniversiteitApp\Resultaten\Ellis_v10102025\Volwassenen\Volwassenen_v3.mot
version=1
nRows=18
nColumns=29
inDegrees=yes
endheader
                time	         pelvis_tilt	           pelvis_tx	           pelvis_ty	       hip_flexion_l	       hip_flexion_r	        knee_angle_l	        knee_angle_r	       ankle_angle_l	       ankle_angle_r	    lumbar_extension	hamstrings_r/activation	bifemsh_r/activation	glut_max_r/activation	iliopsoas_r/activation	rect_fem_r/activation	  vasti_r/activation	gastroc_r/activation	 soleus_r/activation	tib_ant_r/activation	hamstrings_l/activation	bifemsh_l/activation	glut_max_l/activation	iliopsoas_l/activation	rect_fem_l/activation	  vasti_l/activation	gastroc_l/activation	 soleus_l/activation	tib_ant_l/activation	
          0.99980745	         -4.41387691	          1.19976894	          1.01883611	         26.94020490	        -11.03342853	        -23.74579515	        -16.25057973	          7.30440611	         -0.31957566	         -3.08847952	          0.07618035	          0.22040270	          0.08543959	          0.70453971	          0.36025155	          0.11502165	          0.17203598	          0.20264658	          0.05209948	          0.36618806	          0.07061048	          0.16696297	          0.05937603	          0.11915270	          0.09135531	          0.05733693	          0.07962520	          0.31055859	
          1.01980360	         -4.63247180	          1.23099194	          1.01671607	         25.58172351	        -10.93361932	        -23.72285014	        -18.88464138	          7.58753441	         -2.34518488	         -2.07370909	          0.09337683	          0.18535029	          0.13840381	          0.56249203	          0.27628362	          0.09338709	          0.13059161	          0.15291946	          0.17196527	          0.28912893	          0.09888638	          0.18489862	          0.06027734	          0.09597223	          0.20539849	          0.06208961	          0.10640849	          0.28896127	
          1.03979975	         -4.84642562	          1.26180426	          1.01413816	         24.33437875	        -10.22411956	        -24.54499949	        -22.51729423	          8.82966797	         -3.89376961	         -1.10439860	          0.09583660	          0.16250188	          0.16512434	          0.51978179	          0.24827718	          0.07640658	          0.10444910	          0.11716280	          0.28969535	          0.21782301	          0.09498507	          0.24826884	          0.05547192	          0.09963164	          0.33203305	          0.06025618	          0.16949039	          0.22460228	
          1.05979590	         -5.03448293	          1.29096877	          1.01259487	         23.31775741	         -9.11484031	        -25.65112203	        -25.93380953	         10.30132669	         -3.33860561	         -0.34640223	          0.13275830	          0.19156669	          0.12731941	          0.42855055	          0.19929124	          0.05955080	          0.08921063	          0.08789543	          0.28281072	          0.16626718	          0.10351854	          0.23585950	          0.05941995	          0.09426112	          0.41945556	          0.06675262	          0.24441480	          0.17850540	
          1.07979205	         -5.19370512	          1.31842646	          1.01304031	         22.06879072	         -7.51973390	        -26.12312685	        -29.12635297	         11.17392661	         -2.26485050	          0.19513315	          0.16021246	          0.20380062	          0.10570239	          0.33372754	          0.20189517	          0.05405641	          0.09036734	          0.06772683	          0.25618012	          0.13075334	          0.10674684	          0.19855561	          0.05750719	          0.09098827	          0.40385095	          0.09286363	          0.29779025	          0.16392368	
          1.09978819	         -5.32169828	          1.34442963	          1.01540068	         20.47281204	         -5.52175413	        -25.79298428	        -32.13879233	         11.47360052	         -1.20692260	          0.55019035	          0.18829680	          0.22131953	          0.08708378	          0.25408403	          0.24525628	          0.05409053	          0.09419487	          0.05733306	          0.23930296	          0.11811212	          0.10192713	          0.16393175	          0.05632766	          0.09629155	          0.32446513	          0.12763688	          0.32553082	          0.15716197	
          1.11978434	         -5.40373597	          1.36922692	          1.01909546	         18.64348023	         -3.31316857	        -24.92569268	        -34.73008902	         11.28610277	         -0.24587160	          0.72907218	          0.20604547	          0.26197283	          0.07264407	          0.19464829	          0.26918253	          0.05407487	          0.09552487	          0.05635771	          0.24135056	          0.11370257	          0.09789304	          0.13825534	          0.05608266	          0.11182226	          0.24889892	          0.16735286	          0.33183017	          0.13062704	
          1.13978049	         -5.42769155	          1.39296969	          1.02347341	         16.68730021	         -0.98620963	        -23.76195368	        -36.87272113	         10.72436782	          0.67024244	          0.73243250	          0.20155093	          0.31070681	          0.06238502	          0.15298380	          0.28060781	          0.05489818	          0.09683030	          0.05714209	          0.24733346	          0.11109912	          0.10341957	          0.11929477	          0.05743588	          0.12605843	          0.19066439	          0.20527139	          0.32261556	          0.10358257	
          1.15977664	         -5.39381138	          1.41572881	          1.02799272	         14.70051172	          1.44973816	        -22.50376248	        -38.69547406	          9.94637559	          1.54339541	          0.56617047	          0.17519147	          0.34362316	          0.05971848	          0.12720790	          0.27794857	          0.05517847	          0.09810347	          0.05778425	          0.25011992	          0.10667456	          0.12322806	          0.10857693	          0.05892631	          0.13622199	          0.14784630	          0.23529390	          0.30613551	          0.08227674	
          1.17977279	         -5.30718960	          1.43757231	          1.03226821	         12.77308290	          3.98849836	        -21.33443969	        -40.29617685	          9.08375794	          2.34765821	          0.24245435	          0.14221709	          0.37072251	          0.05702117	          0.11307303	          0.26747437	          0.05643996	          0.09502886	          0.05781104	          0.24767932	          0.10212016	          0.14656568	          0.10422497	          0.06077439	          0.15120623	          0.12471880	          0.25739980	          0.28902700	          0.06772103	
          1.19976894	         -5.17489942	          1.45858721	          1.03610839	         10.97509630	          6.61260923	        -20.39419595	        -41.71188229	          8.21656032	          3.09448875	         -0.22277798	          0.11338998	          0.38572837	          0.05778854	          0.10853742	          0.24988223	          0.05649338	          0.08904758	          0.05726081	          0.24208849	          0.09532621	          0.17397663	          0.10433944	          0.06370195	          0.16479700	          0.11622319	          0.27200750	          0.27291197	          0.06091061	
          1.21976509	         -5.00342902	          1.47892226	          1.03943302	          9.31799336	          9.28794314	        -19.71713796	        -42.93983676	          7.40222672	          3.79384231	         -0.80728812	          0.09012471	          0.40011090	          0.05386226	          0.10718302	          0.22897439	          0.05892043	          0.08278229	          0.05707382	          0.23764603	          0.09188812	          0.21156266	          0.10057637	          0.06914320	          0.17779313	          0.11955906	          0.27920590	          0.25787365	          0.05965254	
          1.23976124	         -4.80422886	          1.49875852	          1.04217681	          7.76993430	         11.97874856	        -19.24982268	        -43.96112897	          6.68074444	          4.46724680	         -1.48064768	          0.07367772	          0.39886241	          0.05740216	          0.10855445	          0.20587020	          0.05969361	          0.07806586	          0.05690630	          0.23738397	          0.08634875	          0.23860965	          0.10127635	          0.07286350	          0.19100052	          0.12601339	          0.28284059	          0.24642927	          0.06004282	
          1.25975739	         -4.58845002	          1.51834191	          1.04429803	          6.26964049	         14.62430850	        -18.89189613	        -44.71443562	          6.07329305	          5.12706151	         -2.20237384	          0.06211667	          0.39484705	          0.05540035	          0.11403498	          0.18638697	          0.06589211	          0.07430537	          0.05714150	          0.23657887	          0.08549182	          0.27100544	          0.09674259	          0.08102497	          0.19875123	          0.12597559	          0.28275950	          0.23487458	          0.06274003	
          1.27975354	         -4.36908823	          1.53784371	          1.04575093	          4.82443090	         17.16126351	        -18.65776834	        -45.09327290	          5.60184973	          5.75830424	         -2.94145658	          0.05818689	          0.35129671	          0.05868792	          0.11921334	          0.16864085	          0.07458467	          0.07104199	          0.05737136	          0.23877138	          0.08182381	          0.28617092	          0.09888772	          0.08648087	          0.22084222	          0.12676616	          0.28027713	          0.22688539	          0.06980574	
          1.29974968	         -4.15787217	          1.55750618	          1.04650582	          3.40898884	         19.47479917	        -18.50902003	        -44.88011773	          5.28255580	          6.36018585	         -3.65727720	          0.05535528	          0.29417913	          0.05444593	          0.12762200	          0.15204155	          0.08221095	          0.06833921	          0.05811093	          0.23892546	          0.08467489	          0.30350779	          0.09312315	          0.09315534	          0.24141219	          0.12503405	          0.27960752	          0.22288736	          0.09480467	
          1.31974583	         -3.96723713	          1.57748115	          1.04648942	          2.02831105	         21.48498162	        -18.45345659	        -43.92420041	          5.13096185	          6.86678661	         -4.32234417	          0.05593014	          0.23683264	          0.06362215	          0.13723639	          0.14071260	          0.07772691	          0.06676661	          0.06046922	          0.24241893	          0.08282999	          0.30978478	          0.09871052	          0.09424592	          0.27542761	          0.12640487	          0.28554193	          0.22460578	          0.12546416	
          1.33974198	         -3.80916707	          1.59796234	          1.04563065	          0.63542399	         23.15307570	        -18.39652158	        -42.22352973	          5.10342006	          7.21444134	         -4.90029212	          0.05378794	          0.19098364	          0.06124757	          0.14784246	          0.12748733	          0.06947537	          0.06658515	          0.06634547	          0.24702539	          0.08730170	          0.31140301	          0.09310594	          0.09252145	          0.30040429	          0.13162864	          0.29558776	          0.23350693	          0.15242232	
